<?xml version="1.0" encoding="UTF-8"?>
<svg xmlns="http://www.w3.org/2000/svg" xmlns:xlink="http://www.w3.org/1999/xlink" data-vector95-version="1.3.2" data-vector95-format="3" width="100" height="100" viewBox="0 0 100 100">
<metadata id="vector95-document">{&quot;version&quot;:3,&quot;vector95Version&quot;:&quot;1.3.2&quot;,&quot;width&quot;:100,&quot;height&quot;:100,&quot;background&quot;:&quot;none&quot;,&quot;defs&quot;:&quot;&quot;,&quot;layers&quot;:[{&quot;id&quot;:&quot;0a6fccb7-1c43-42d4-a541-755a17abd0c3&quot;,&quot;name&quot;:&quot;Body reference (show to align)&quot;,&quot;visible&quot;:true,&quot;locked&quot;:true,&quot;opacity&quot;:0.4,&quot;tx&quot;:0,&quot;ty&quot;:0,&quot;sx&quot;:1,&quot;sy&quot;:1,&quot;rotation&quot;:0,&quot;wrappers&quot;:[],&quot;elements&quot;:[],&quot;children&quot;:[{&quot;id&quot;:&quot;bcfba016-5052-4549-894c-a1d0a2736b45&quot;,&quot;name&quot;:&quot;Group&quot;,&quot;visible&quot;:true,&quot;locked&quot;:false,&quot;opacity&quot;:1,&quot;tx&quot;:0,&quot;ty&quot;:0,&quot;sx&quot;:1,&quot;sy&quot;:1,&quot;rotation&quot;:0,&quot;wrappers&quot;:[{&quot;transform&quot;:&quot;matrix(2.3809523582458496 0 0 2.3809523582458496 -69.04761838912964 -64.28571367263794)&quot;}],&quot;elements&quot;:[{&quot;id&quot;:&quot;b317604a-9435-45d8-b60b-fc9e8174b585&quot;,&quot;type&quot;:&quot;path&quot;,&quot;attrs&quot;:{&quot;d&quot;:&quot;M41 62C41 62 46.5 62 46.5 62C46.5 62 46.5 90.56302369 46.5 90.56302369C45.51488143 90.20869045 44.30618298 90 43 90C42.29872915 90 41.62555785 90.06015422 41 90.17070571C41 90.17070571 41 62 41 62Z&quot;,&quot;fill&quot;:&quot;#f2c9a0&quot;,&quot;opacity&quot;:1,&quot;fill-opacity&quot;:1,&quot;stroke&quot;:&quot;none&quot;,&quot;stroke-width&quot;:0,&quot;fill-rule&quot;:&quot;nonzero&quot;},&quot;tx&quot;:0,&quot;ty&quot;:0,&quot;sx&quot;:1,&quot;sy&quot;:1,&quot;rotation&quot;:0,&quot;name&quot;:&quot;rect&quot;,&quot;paint&quot;:true},{&quot;id&quot;:&quot;08ffced9-0ebc-4cd1-bb5a-838d0df154b9&quot;,&quot;type&quot;:&quot;path&quot;,&quot;attrs&quot;:{&quot;d&quot;:&quot;M53.5 62C53.5 62 59 62 59 62C59 62 59 90.17070571 59 90.17070571C58.37444215 90.06015422 57.70127085 90 57 90C55.69381702 90 54.48511857 90.20869045 53.5 90.56302369C53.5 90.56302369 53.5 62 53.5 62Z&quot;,&quot;fill&quot;:&quot;#f2c9a0&quot;,&quot;opacity&quot;:1,&quot;fill-opacity&quot;:1,&quot;stroke&quot;:&quot;none&quot;,&quot;stroke-width&quot;:0,&quot;fill-rule&quot;:&quot;nonzero&quot;},&quot;tx&quot;:0,&quot;ty&quot;:0,&quot;sx&quot;:1,&quot;sy&quot;:1,&quot;rotation&quot;:0,&quot;name&quot;:&quot;rect&quot;,&quot;paint&quot;:true},{&quot;id&quot;:&quot;2e804fe9-c722-45fc-82f8-0a8e37bd8bd2&quot;,&quot;type&quot;:&quot;ellipse&quot;,&quot;attrs&quot;:{&quot;fill&quot;:&quot;#333&quot;,&quot;stroke&quot;:&quot;none&quot;,&quot;stroke-width&quot;:0,&quot;font-family&quot;:&quot;Times New Roman, serif&quot;,&quot;font-size&quot;:16,&quot;rx&quot;:6,&quot;ry&quot;:3,&quot;cx&quot;:43,&quot;cy&quot;:93},&quot;tx&quot;:0,&quot;ty&quot;:0,&quot;sx&quot;:1,&quot;sy&quot;:1,&quot;rotation&quot;:0,&quot;name&quot;:&quot;ellipse&quot;,&quot;matrix&quot;:[1,0,0,1,0,0],&quot;wrappers&quot;:[],&quot;paint&quot;:true},{&quot;id&quot;:&quot;2e183d56-b81e-415b-88f5-f7146005eb56&quot;,&quot;type&quot;:&quot;ellipse&quot;,&quot;attrs&quot;:{&quot;fill&quot;:&quot;#333&quot;,&quot;stroke&quot;:&quot;none&quot;,&quot;stroke-width&quot;:0,&quot;font-family&quot;:&quot;Times New Roman, serif&quot;,&quot;font-size&quot;:16,&quot;rx&quot;:6,&quot;ry&quot;:3,&quot;cx&quot;:57,&quot;cy&quot;:93},&quot;tx&quot;:0,&quot;ty&quot;:0,&quot;sx&quot;:1,&quot;sy&quot;:1,&quot;rotation&quot;:0,&quot;name&quot;:&quot;ellipse&quot;,&quot;matrix&quot;:[1,0,0,1,0,0],&quot;wrappers&quot;:[],&quot;paint&quot;:true},{&quot;id&quot;:&quot;69f8a246-6f42-41bb-b318-d254584dd14d&quot;,&quot;type&quot;:&quot;path&quot;,&quot;attrs&quot;:{&quot;d&quot;:&quot;M44.54000062 45.48000073C44.54000062 45.48000073 38.82767139 55.00054945 38.82767139 55.00054945C39.06534369 55.44782209 39.2 55.95818571 39.2 56.5C39.2 58.2673112 37.7673112 59.7 36 59.7C34.2326888 59.7 32.8 58.2673112 32.8 56.5C32.8 55.15747609 33.62674174 54.00804806 34.79888118 53.53305995C34.79888118 53.53305995 42.44000053 36.24000037 42.44000053 36.24000037C42.44000053 36.24000037 44.54000062 45.48000073 44.54000062 45.48000073ZM57.56000113 36.24000037C57.56000113 36.24000037 65.20112085 53.53306078 65.20112085 53.53306078C66.37325921 54.00804939 67.2 55.15747686 67.2 56.5C67.2 58.2673112 65.7673112 59.7 64 59.7C62.2326888 59.7 60.8 58.2673112 60.8 56.5C60.8 55.95818512 60.93465661 55.44782097 61.1723294 55.00054798C61.1723294 55.00054798 55.46000105 45.48000073 55.46000105 45.48000073C55.46000105 45.48000073 57.56000113 36.24000037 57.56000113 36.24000037Z&quot;,&quot;fill&quot;:&quot;#f2c9a0&quot;,&quot;opacity&quot;:1,&quot;fill-opacity&quot;:1,&quot;stroke&quot;:&quot;none&quot;,&quot;stroke-width&quot;:0,&quot;fill-rule&quot;:&quot;nonzero&quot;},&quot;tx&quot;:0,&quot;ty&quot;:0,&quot;sx&quot;:1,&quot;sy&quot;:1,&quot;rotation&quot;:0,&quot;name&quot;:&quot;path&quot;,&quot;paint&quot;:true},{&quot;id&quot;:&quot;47db48a8-fad6-46ec-a29d-258cbe1891a1&quot;,&quot;type&quot;:&quot;path&quot;,&quot;attrs&quot;:{&quot;d&quot;:&quot;M39 26C39 19.92486775 43.92486775 15 50 15C56.07513225 15 61 19.92486775 61 26C61 32.07513225 56.07513225 37 50 37C43.92486775 37 39 32.07513225 39 26ZM46 27.3C46.71797017 27.3 47.3 26.71797017 47.3 26C47.3 25.28202983 46.71797017 24.7 46 24.7C45.28202983 24.7 44.7 25.28202983 44.7 26C44.7 26.71797017 45.28202983 27.3 46 27.3ZM54 27.3C54.71797017 27.3 55.3 26.71797017 55.3 26C55.3 25.28202983 54.71797017 24.7 54 24.7C53.28202983 24.7 52.7 25.28202983 52.7 26C52.7 26.71797017 53.28202983 27.3 54 27.3Z&quot;,&quot;fill&quot;:&quot;#f2c9a0&quot;,&quot;opacity&quot;:1,&quot;fill-opacity&quot;:1,&quot;stroke&quot;:&quot;none&quot;,&quot;stroke-width&quot;:0,&quot;fill-rule&quot;:&quot;nonzero&quot;},&quot;tx&quot;:0,&quot;ty&quot;:0,&quot;sx&quot;:1,&quot;sy&quot;:1,&quot;rotation&quot;:0,&quot;name&quot;:&quot;ellipse&quot;,&quot;paint&quot;:true},{&quot;id&quot;:&quot;c6982f06-8f43-47a4-a2ed-c24f9fb593e6&quot;,&quot;type&quot;:&quot;ellipse&quot;,&quot;attrs&quot;:{&quot;fill&quot;:&quot;#333&quot;,&quot;stroke&quot;:&quot;none&quot;,&quot;stroke-width&quot;:0,&quot;font-family&quot;:&quot;Times New Roman, serif&quot;,&quot;font-size&quot;:16,&quot;cx&quot;:46,&quot;cy&quot;:26,&quot;ry&quot;:1.3,&quot;rx&quot;:1.3},&quot;tx&quot;:0,&quot;ty&quot;:0,&quot;sx&quot;:1,&quot;sy&quot;:1,&quot;rotation&quot;:0,&quot;name&quot;:&quot;ellipse&quot;,&quot;matrix&quot;:[1,0,0,1,0,0],&quot;wrappers&quot;:[],&quot;paint&quot;:true},{&quot;id&quot;:&quot;227e7a45-fc4c-49f8-ad80-62e6b1106ccc&quot;,&quot;type&quot;:&quot;ellipse&quot;,&quot;attrs&quot;:{&quot;fill&quot;:&quot;#333&quot;,&quot;stroke&quot;:&quot;none&quot;,&quot;stroke-width&quot;:0,&quot;font-family&quot;:&quot;Times New Roman, serif&quot;,&quot;font-size&quot;:16,&quot;cx&quot;:54,&quot;cy&quot;:26,&quot;ry&quot;:1.3,&quot;rx&quot;:1.3},&quot;tx&quot;:0,&quot;ty&quot;:0,&quot;sx&quot;:1,&quot;sy&quot;:1,&quot;rotation&quot;:0,&quot;name&quot;:&quot;ellipse&quot;,&quot;matrix&quot;:[1,0,0,1,0,0],&quot;wrappers&quot;:[],&quot;paint&quot;:true},{&quot;id&quot;:&quot;fd565ed1-c18f-4ccf-b83b-255b2eb8062f&quot;,&quot;type&quot;:&quot;path&quot;,&quot;attrs&quot;:{&quot;fill&quot;:&quot;none&quot;,&quot;stroke&quot;:&quot;#333&quot;,&quot;stroke-width&quot;:&quot;1.2&quot;,&quot;font-family&quot;:&quot;Times New Roman, serif&quot;,&quot;font-size&quot;:16,&quot;stroke-linecap&quot;:&quot;round&quot;,&quot;d&quot;:&quot;M46,31 Q50,34 54,31&quot;},&quot;tx&quot;:0,&quot;ty&quot;:0,&quot;sx&quot;:1,&quot;sy&quot;:1,&quot;rotation&quot;:0,&quot;name&quot;:&quot;path&quot;,&quot;matrix&quot;:[1,0,0,1,0,0],&quot;wrappers&quot;:[],&quot;nodes&quot;:[{&quot;x&quot;:46,&quot;y&quot;:31,&quot;hx&quot;:2.6666666666666643,&quot;hy&quot;:2,&quot;inx&quot;:0,&quot;iny&quot;:0,&quot;move&quot;:true},{&quot;x&quot;:54,&quot;y&quot;:31,&quot;hx&quot;:0,&quot;hy&quot;:0,&quot;inx&quot;:-2.6666666666666643,&quot;iny&quot;:2}]}],&quot;children&quot;:[],&quot;attrs&quot;:{},&quot;matrix&quot;:[2.3809523582458496,0,0,2.3809523582458496,-69.04761838912964,-64.28571367263794]}],&quot;matrix&quot;:[1,0,0,1,0,0],&quot;svgId&quot;:&quot;body-reference&quot;},{&quot;id&quot;:&quot;97392387-57ee-4c1d-9f9b-ff1e192d896d&quot;,&quot;name&quot;:&quot;Clothing&quot;,&quot;visible&quot;:true,&quot;locked&quot;:false,&quot;opacity&quot;:1,&quot;tx&quot;:0,&quot;ty&quot;:0,&quot;sx&quot;:1,&quot;sy&quot;:1,&quot;rotation&quot;:0,&quot;wrappers&quot;:[],&quot;elements&quot;:[{&quot;id&quot;:&quot;9ada702e-daf4-4ea6-9007-14c6068acb10&quot;,&quot;type&quot;:&quot;path&quot;,&quot;attrs&quot;:{&quot;d&quot;:&quot;M61.49833532 28.2704918C61.53239826 28.34563744 61.56319531 28.41995113 61.59100814 28.49351855C61.07554753 29.51191946 60.53692723 30.4915852 59.89936487 31.31220152C58.23970488 33.44837545 56.25551182 34.87773753 53.95953833 36.28529795C53.57898124 36.51860077 51.3281578 38.20766661 50.20953833 38.0205495C49.02570438 37.82252364 48.52844025 36.69252348 47.70953833 35.9737217C45.18096206 33.75423104 42.31508205 31.53905554 40.0461968 28.93223552C40.07120766 28.90324972 40.09664991 28.87419123 40.12253164 28.84505718C42.66035502 25.9883289 46.63934882 25.16248263 50.12253164 24.24066199C54.06807827 23.88917193 59.55517489 23.98371983 61.49833532 28.2704918Z&quot;,&quot;fill&quot;:&quot;#ffffff&quot;,&quot;opacity&quot;:1,&quot;fill-opacity&quot;:1,&quot;stroke&quot;:&quot;none&quot;,&quot;stroke-width&quot;:0,&quot;fill-rule&quot;:&quot;nonzero&quot;},&quot;tx&quot;:0,&quot;ty&quot;:0,&quot;sx&quot;:1,&quot;sy&quot;:1,&quot;rotation&quot;:0,&quot;paint&quot;:true},{&quot;id&quot;:&quot;c3874f96-6e5b-458c-b37b-e3a448b7d633&quot;,&quot;type&quot;:&quot;path&quot;,&quot;attrs&quot;:{&quot;d&quot;:&quot;M25.74490517 24.19440716C24.12345754 24.73611998 23.33345117 25.87567264 21.49490517 26.23865242C15.64912393 27.39277118 7.53042531 23.74504118 11.80299337 16.47804037C12.68143512 14.98394201 14.11173187 13.8307734 15.71172453 12.95818973C12.27357298 17.92116755 16.75837862 22.78108653 22.00149819 22.02977845C24.51715215 21.66930009 28.53187237 19.90734363 29.75149819 17.5368178C30.29493236 16.48057194 30.46632141 15.47502717 30.35690412 14.5586292C31.91150315 15.94103916 32.78482528 17.71241722 32.21086333 19.80451027C35.19612844 20.80218474 36.61406188 24.14471046 38.45953833 26.88043005C40.84918886 30.42282895 44.54373105 33.19489325 47.70953833 35.9737217C48.52844025 36.69252348 49.02570438 37.82252364 50.20953833 38.0205495C51.3281578 38.20766661 53.57898124 36.51860077 53.95953833 36.28529795C56.25551182 34.87773753 58.23970488 33.44837545 59.89936487 31.31220152C63.00894201 27.30981692 63.76488874 19.52397006 70.95953833 21.9136207C77.94428361 24.23355314 79.19542642 36.81136289 81.17824215 42.06220152C82.74518683 46.21174177 87.15460029 51.57716892 87.36336452 56.63279463C86.56898041 56.19996139 85.48911434 55.9819569 84.08216602 56.07306194C81.54305205 57.01442993 77.99388283 58.51579457 76.6207676 61.10424079C75.97112361 62.32887838 75.9377796 63.44181733 76.30507659 64.38621872C74.46865245 63.95542054 72.77985903 63.07851971 71.60756524 61.81220152C69.66489662 59.71372022 69.12954315 57.19987477 68.21605701 54.56220152C67.7569903 53.23665542 66.14697683 51.07158018 64.85062613 52.31220152C63.97620782 53.1490291 65.52253931 54.63825659 65.81705768 55.81220152C66.1689639 57.21489343 66.46471281 58.63350795 66.68880487 60.06220152C68.0203019 68.55112912 67.37811795 77.16060575 57.70953833 79.000169C53.12508475 79.87241629 48.37574234 78.98021185 43.70953833 79.04781471C39.54551246 79.10814214 35.50962842 80.04553603 31.91721983 77.31220152C31.54567911 77.02950955 31.21913638 76.74118073 30.93287672 76.44767825C31.87319471 76.10503145 32.62848749 75.1922676 32.83588071 73.57378802C33.67720094 67.00819415 34.26572966 60.41236255 34.90254078 53.82378802C35.18272053 50.92499256 36.73015316 41.30173224 31.51554029 41.77183646C28.80326516 42.78843293 29.52071169 46.20148439 29.17323703 48.57378802C28.97415668 49.93296348 28.75396473 51.28905761 28.52755633 52.64422114C28.11139744 54.0785965 27.87751552 55.49356692 27.68061174 56.29980469C27.12780296 58.56332307 27.45544084 58.95380099 26.71644289 60.54980469C26.10413682 61.87219365 26.22516858 63.06722934 26.75211004 63.89988575C26.69841031 64.18226417 26.6412908 64.46597352 26.58246835 64.75058718C26.54163428 64.78096177 26.50064009 64.81065161 26.45953833 64.83962183C26.16442624 65.04762902 25.85533167 65.22399381 25.53642932 65.3694596C25.63424131 63.31975625 23.23619575 60.73228962 22.08951367 59.28574861C20.02765843 56.68471542 20.06640186 53.95652247 16.33032296 54.24461753C15.85715427 54.42375185 15.44996274 54.64815777 15.10379348 54.91043375C14.03743203 45.9923058 20.41004174 38.57558394 24.01111375 30.56220152C24.81806536 28.76651072 25.25207842 26.28369144 26.04363517 24.10124943C25.94519837 24.12982475 25.84563506 24.1607541 25.74490517 24.19440716ZM39.45847953 45.16647018C35.4548531 47.48245285 41.69613864 54.55440799 43.20847953 56.3683661C43.39914317 56.59705518 43.67552206 56.95212551 44.01984858 57.39995239C42.29280742 58.93974462 40.55733668 60.47041749 38.86491228 62.04787311C37.62896013 63.19986529 34.09912847 65.8864435 34.24007219 68.10522889C34.46373072 71.62613951 38.87769276 70.70465494 40.61621998 69.35522889C43.26303711 67.30079802 45.83969965 65.13112638 48.35586794 62.88703206C50.56163441 65.51368353 52.98852482 68.05811182 54.70847953 68.76399213C60.49898955 71.14045411 60.86822503 64.24708488 57.70847953 61.04974126C56.53198827 59.85925081 55.33955706 58.68476395 54.14197023 57.51544282C55.57101382 56.14067799 56.98170776 54.75116459 58.3760226 53.35522889C60.61200995 51.11664225 62.33547908 46.41144244 57.61491228 46.54302861C53.58767507 47.92562648 51.9468668 49.88392319 49.15721179 52.65017999C48.84020553 52.3372441 48.52389368 52.02360926 48.20847953 51.70907117C46.1902307 49.69642796 42.86006624 44.70713744 39.45847953 45.16647018Z&quot;,&quot;fill&quot;:&quot;#e06f8b&quot;,&quot;opacity&quot;:1,&quot;fill-opacity&quot;:1,&quot;stroke&quot;:&quot;none&quot;,&quot;stroke-width&quot;:0,&quot;fill-rule&quot;:&quot;nonzero&quot;},&quot;tx&quot;:0,&quot;ty&quot;:0,&quot;sx&quot;:1,&quot;sy&quot;:1,&quot;rotation&quot;:0,&quot;paint&quot;:true},{&quot;id&quot;:&quot;e832af61-be75-4fc6-916f-ca8169902868&quot;,&quot;type&quot;:&quot;path&quot;,&quot;attrs&quot;:{&quot;d&quot;:&quot;M29.75149819 17.5368178C28.53187237 19.90734363 24.51715215 21.66930009 22.00149819 22.02977845C16.73833732 22.78395833 12.23929861 17.88393245 15.75149819 12.90127405C17.36162407 10.61703392 20.99159003 10.20106203 23.50149819 9.77000451C27.63450128 9.46147568 32.0653089 13.03957944 29.75149819 17.5368178Z&quot;,&quot;fill&quot;:&quot;#f7e26b&quot;,&quot;opacity&quot;:1,&quot;fill-opacity&quot;:1,&quot;stroke&quot;:&quot;none&quot;,&quot;stroke-width&quot;:0,&quot;fill-rule&quot;:&quot;nonzero&quot;},&quot;tx&quot;:0,&quot;ty&quot;:0,&quot;sx&quot;:1,&quot;sy&quot;:1,&quot;rotation&quot;:0,&quot;paint&quot;:true},{&quot;id&quot;:&quot;87ccdf72-d911-4f62-9ea0-b78e9f22efea&quot;,&quot;type&quot;:&quot;path&quot;,&quot;attrs&quot;:{&quot;d&quot;:&quot;M22.08951367 59.28574861C23.85778084 61.51642005 28.60177572 66.46019928 22.58032296 67.96128219C16.74774545 69.41528055 9.3408114 56.89073805 16.33032296 54.24461753C20.06640186 53.95652247 20.02765843 56.68471542 22.08951367 59.28574861Z&quot;,&quot;fill&quot;:&quot;#f7e26b&quot;,&quot;opacity&quot;:1,&quot;fill-opacity&quot;:1,&quot;stroke&quot;:&quot;none&quot;,&quot;stroke-width&quot;:0,&quot;fill-rule&quot;:&quot;nonzero&quot;},&quot;tx&quot;:0,&quot;ty&quot;:0,&quot;sx&quot;:1,&quot;sy&quot;:1,&quot;rotation&quot;:0,&quot;paint&quot;:true},{&quot;id&quot;:&quot;11c4e4f9-fa91-4a7b-b1be-a6054152b31f&quot;,&quot;type&quot;:&quot;path&quot;,&quot;attrs&quot;:{&quot;d&quot;:&quot;M83.08216602 67.44922807C79.50656458 68.24335044 74.37229055 65.34282312 76.6207676 61.10424079C77.99388283 58.51579457 81.54305205 57.01442993 84.08216602 56.07306194C92.51734984 55.52685301 89.1957158 66.09144067 83.08216602 67.44922807Z&quot;,&quot;fill&quot;:&quot;#f7e26b&quot;,&quot;opacity&quot;:1,&quot;fill-opacity&quot;:1,&quot;stroke&quot;:&quot;none&quot;,&quot;stroke-width&quot;:0,&quot;fill-rule&quot;:&quot;nonzero&quot;},&quot;tx&quot;:0,&quot;ty&quot;:0,&quot;sx&quot;:1,&quot;sy&quot;:1,&quot;rotation&quot;:0,&quot;paint&quot;:true},{&quot;id&quot;:&quot;5125a7c7-88d7-4d07-ac0b-ae54cfa3f69d&quot;,&quot;type&quot;:&quot;path&quot;,&quot;attrs&quot;:{&quot;d&quot;:&quot;M58.3760226 53.35522889C56.98170776 54.75116459 55.57101382 56.14067799 54.14197023 57.51544282C55.33955706 58.68476395 56.53198827 59.85925081 57.70847953 61.04974126C60.86822503 64.24708488 60.49898955 71.14045411 54.70847953 68.76399213C52.98852482 68.05811182 50.56163441 65.51368353 48.35586794 62.88703206C45.83969965 65.13112638 43.26303711 67.30079802 40.61621998 69.35522889C38.87769276 70.70465494 34.46373072 71.62613951 34.24007219 68.10522889C34.09912847 65.8864435 37.62896013 63.19986529 38.86491228 62.04787311C40.55733668 60.47041749 42.29280741 58.93974462 44.01984858 57.39995239C43.67552206 56.95212551 43.39914317 56.59705518 43.20847953 56.3683661C41.69613864 54.55440799 35.4548531 47.48245285 39.45847953 45.16647018C42.86006624 44.70713744 46.1902307 49.69642796 48.20847953 51.70907117C48.52389368 52.02360926 48.84020553 52.3372441 49.15721179 52.65017999C51.9468668 49.88392319 53.58767507 47.92562648 57.61491228 46.54302861C62.33547908 46.41144244 60.61200995 51.11664225 58.3760226 53.35522889Z&quot;,&quot;fill&quot;:&quot;#f7e26b&quot;,&quot;opacity&quot;:1,&quot;fill-opacity&quot;:1,&quot;stroke&quot;:&quot;none&quot;,&quot;stroke-width&quot;:0,&quot;fill-rule&quot;:&quot;nonzero&quot;},&quot;tx&quot;:0,&quot;ty&quot;:0,&quot;sx&quot;:1,&quot;sy&quot;:1,&quot;rotation&quot;:0,&quot;paint&quot;:true},{&quot;id&quot;:&quot;62f5d18b-5d96-4344-b6c5-818aaf83acfd&quot;,&quot;type&quot;:&quot;path&quot;,&quot;attrs&quot;:{&quot;d&quot;:&quot;M34.90254078 53.82378802C34.26572966 60.41236255 33.67720094 67.00819415 32.83588071 73.57378802C32.28495026 77.87320389 27.86763195 77.1925634 26.38633842 74.07378802C24.92796214 71.00326356 26.0956023 67.3521117 26.75211004 63.89988575C26.22516858 63.06722934 26.10413683 61.87219366 26.71644289 60.54980469C27.45544084 58.95380099 27.12780296 58.56332307 27.68061174 56.29980469C27.87751552 55.49356692 28.11139744 54.0785965 28.52755633 52.64422114C28.75396473 51.28905761 28.97415668 49.93296348 29.17323703 48.57378802C29.52071169 46.20148439 28.80326516 42.78843293 31.51554029 41.77183646C36.73015316 41.30173224 35.18272053 50.92499256 34.90254078 53.82378802Z&quot;,&quot;fill&quot;:&quot;#be2633&quot;,&quot;opacity&quot;:1,&quot;fill-opacity&quot;:1,&quot;stroke&quot;:&quot;none&quot;,&quot;stroke-width&quot;:0,&quot;fill-rule&quot;:&quot;nonzero&quot;},&quot;tx&quot;:0,&quot;ty&quot;:0,&quot;sx&quot;:1,&quot;sy&quot;:1,&quot;rotation&quot;:0,&quot;paint&quot;:true}],&quot;children&quot;:[],&quot;matrix&quot;:[1,0,0,1,0,0],&quot;svgId&quot;:&quot;clothing&quot;}],&quot;layerModel&quot;:2,&quot;activeLayer&quot;:&quot;97392387-57ee-4c1d-9f9b-ff1e192d896d&quot;}</metadata>
<g id="body-reference" data-name="Body reference (show to align)" data-locked="true" opacity="0.4" transform=" matrix(1 0 0 1 0 0)"><g id="layer-bcfba016-5052-4549-894c-a1d0a2736b45" data-name="Group" data-locked="false" opacity="1" transform=" matrix(2.3809523582458496 0 0 2.3809523582458496 -69.04761838912964 -64.28571367263794)"><path transform="translate(0 0) rotate(0) scale(1 1)" data-vector95-seam-stroke="1" d="M41 62C41 62 46.5 62 46.5 62C46.5 62 46.5 90.56302369 46.5 90.56302369C45.51488143 90.20869045 44.30618298 90 43 90C42.29872915 90 41.62555785 90.06015422 41 90.17070571C41 90.17070571 41 62 41 62Z" fill="#f2c9a0" stroke="#f2c9a0" stroke-width="1" opacity="1" stroke-linecap="round" stroke-linejoin="round" fill-rule="nonzero" fill-opacity="1" stroke-opacity="1" stroke-dasharray="none" stroke-dashoffset="0"></path><path transform="translate(0 0) rotate(0) scale(1 1)" data-vector95-seam-stroke="1" d="M53.5 62C53.5 62 59 62 59 62C59 62 59 90.17070571 59 90.17070571C58.37444215 90.06015422 57.70127085 90 57 90C55.69381702 90 54.48511857 90.20869045 53.5 90.56302369C53.5 90.56302369 53.5 62 53.5 62Z" fill="#f2c9a0" stroke="#f2c9a0" stroke-width="1" opacity="1" stroke-linecap="round" stroke-linejoin="round" fill-rule="nonzero" fill-opacity="1" stroke-opacity="1" stroke-dasharray="none" stroke-dashoffset="0"></path><ellipse transform="translate(0 0) rotate(0) scale(1 1)" data-vector95-seam-stroke="1" rx="6" ry="3" cx="43" cy="93" fill="#333" stroke="#333" stroke-width="1" font-family="Times New Roman, serif" font-size="16" stroke-linecap="round" stroke-linejoin="round" stroke-opacity="1" stroke-dasharray="none" stroke-dashoffset="0"></ellipse><ellipse transform="translate(0 0) rotate(0) scale(1 1)" data-vector95-seam-stroke="1" rx="6" ry="3" cx="57" cy="93" fill="#333" stroke="#333" stroke-width="1" font-family="Times New Roman, serif" font-size="16" stroke-linecap="round" stroke-linejoin="round" stroke-opacity="1" stroke-dasharray="none" stroke-dashoffset="0"></ellipse><path transform="translate(0 0) rotate(0) scale(1 1)" data-vector95-seam-stroke="1" d="M44.54000062 45.48000073C44.54000062 45.48000073 38.82767139 55.00054945 38.82767139 55.00054945C39.06534369 55.44782209 39.2 55.95818571 39.2 56.5C39.2 58.2673112 37.7673112 59.7 36 59.7C34.2326888 59.7 32.8 58.2673112 32.8 56.5C32.8 55.15747609 33.62674174 54.00804806 34.79888118 53.53305995C34.79888118 53.53305995 42.44000053 36.24000037 42.44000053 36.24000037C42.44000053 36.24000037 44.54000062 45.48000073 44.54000062 45.48000073ZM57.56000113 36.24000037C57.56000113 36.24000037 65.20112085 53.53306078 65.20112085 53.53306078C66.37325921 54.00804939 67.2 55.15747686 67.2 56.5C67.2 58.2673112 65.7673112 59.7 64 59.7C62.2326888 59.7 60.8 58.2673112 60.8 56.5C60.8 55.95818512 60.93465661 55.44782097 61.1723294 55.00054798C61.1723294 55.00054798 55.46000105 45.48000073 55.46000105 45.48000073C55.46000105 45.48000073 57.56000113 36.24000037 57.56000113 36.24000037Z" fill="#f2c9a0" stroke="#f2c9a0" stroke-width="1" opacity="1" stroke-linecap="round" stroke-linejoin="round" fill-rule="nonzero" fill-opacity="1" stroke-opacity="1" stroke-dasharray="none" stroke-dashoffset="0"></path><path transform="translate(0 0) rotate(0) scale(1 1)" data-vector95-seam-stroke="1" d="M39 26C39 19.92486775 43.92486775 15 50 15C56.07513225 15 61 19.92486775 61 26C61 32.07513225 56.07513225 37 50 37C43.92486775 37 39 32.07513225 39 26ZM46 27.3C46.71797017 27.3 47.3 26.71797017 47.3 26C47.3 25.28202983 46.71797017 24.7 46 24.7C45.28202983 24.7 44.7 25.28202983 44.7 26C44.7 26.71797017 45.28202983 27.3 46 27.3ZM54 27.3C54.71797017 27.3 55.3 26.71797017 55.3 26C55.3 25.28202983 54.71797017 24.7 54 24.7C53.28202983 24.7 52.7 25.28202983 52.7 26C52.7 26.71797017 53.28202983 27.3 54 27.3Z" fill="#f2c9a0" stroke="#f2c9a0" stroke-width="1" opacity="1" stroke-linecap="round" stroke-linejoin="round" fill-rule="nonzero" fill-opacity="1" stroke-opacity="1" stroke-dasharray="none" stroke-dashoffset="0"></path><ellipse transform="translate(0 0) rotate(0) scale(1 1)" data-vector95-seam-stroke="1" rx="1.3" ry="1.3" cx="46" cy="26" fill="#333" stroke="#333" stroke-width="1" font-family="Times New Roman, serif" font-size="16" stroke-linecap="round" stroke-linejoin="round" stroke-opacity="1" stroke-dasharray="none" stroke-dashoffset="0"></ellipse><ellipse transform="translate(0 0) rotate(0) scale(1 1)" data-vector95-seam-stroke="1" rx="1.3" ry="1.3" cx="54" cy="26" fill="#333" stroke="#333" stroke-width="1" font-family="Times New Roman, serif" font-size="16" stroke-linecap="round" stroke-linejoin="round" stroke-opacity="1" stroke-dasharray="none" stroke-dashoffset="0"></ellipse><path transform="translate(0 0) rotate(0) scale(1 1)" d="M46,31 Q50,34 54,31" fill="none" stroke="#333" stroke-width="1.2" font-family="Times New Roman, serif" font-size="16" stroke-linecap="round"></path></g></g><g id="clothing" data-name="Clothing" data-locked="false" opacity="1" transform=" matrix(1 0 0 1 0 0)"><path transform="translate(0 0) rotate(0) scale(1 1)" data-vector95-seam-stroke="1" d="M61.49833532 28.2704918C61.53239826 28.34563744 61.56319531 28.41995113 61.59100814 28.49351855C61.07554753 29.51191946 60.53692723 30.4915852 59.89936487 31.31220152C58.23970488 33.44837545 56.25551182 34.87773753 53.95953833 36.28529795C53.57898124 36.51860077 51.3281578 38.20766661 50.20953833 38.0205495C49.02570438 37.82252364 48.52844025 36.69252348 47.70953833 35.9737217C45.18096206 33.75423104 42.31508205 31.53905554 40.0461968 28.93223552C40.07120766 28.90324972 40.09664991 28.87419123 40.12253164 28.84505718C42.66035502 25.9883289 46.63934882 25.16248263 50.12253164 24.24066199C54.06807827 23.88917193 59.55517489 23.98371983 61.49833532 28.2704918Z" fill="#ffffff" stroke="#ffffff" stroke-width="1" opacity="1" stroke-linecap="round" stroke-linejoin="round" fill-rule="nonzero" fill-opacity="1" stroke-opacity="1" stroke-dasharray="none" stroke-dashoffset="0"></path><path transform="translate(0 0) rotate(0) scale(1 1)" data-vector95-seam-stroke="1" d="M25.74490517 24.19440716C24.12345754 24.73611998 23.33345117 25.87567264 21.49490517 26.23865242C15.64912393 27.39277118 7.53042531 23.74504118 11.80299337 16.47804037C12.68143512 14.98394201 14.11173187 13.8307734 15.71172453 12.95818973C12.27357298 17.92116755 16.75837862 22.78108653 22.00149819 22.02977845C24.51715215 21.66930009 28.53187237 19.90734363 29.75149819 17.5368178C30.29493236 16.48057194 30.46632141 15.47502717 30.35690412 14.5586292C31.91150315 15.94103916 32.78482528 17.71241722 32.21086333 19.80451027C35.19612844 20.80218474 36.61406188 24.14471046 38.45953833 26.88043005C40.84918886 30.42282895 44.54373105 33.19489325 47.70953833 35.9737217C48.52844025 36.69252348 49.02570438 37.82252364 50.20953833 38.0205495C51.3281578 38.20766661 53.57898124 36.51860077 53.95953833 36.28529795C56.25551182 34.87773753 58.23970488 33.44837545 59.89936487 31.31220152C63.00894201 27.30981692 63.76488874 19.52397006 70.95953833 21.9136207C77.94428361 24.23355314 79.19542642 36.81136289 81.17824215 42.06220152C82.74518683 46.21174177 87.15460029 51.57716892 87.36336452 56.63279463C86.56898041 56.19996139 85.48911434 55.9819569 84.08216602 56.07306194C81.54305205 57.01442993 77.99388283 58.51579457 76.6207676 61.10424079C75.97112361 62.32887838 75.9377796 63.44181733 76.30507659 64.38621872C74.46865245 63.95542054 72.77985903 63.07851971 71.60756524 61.81220152C69.66489662 59.71372022 69.12954315 57.19987477 68.21605701 54.56220152C67.7569903 53.23665542 66.14697683 51.07158018 64.85062613 52.31220152C63.97620782 53.1490291 65.52253931 54.63825659 65.81705768 55.81220152C66.1689639 57.21489343 66.46471281 58.63350795 66.68880487 60.06220152C68.0203019 68.55112912 67.37811795 77.16060575 57.70953833 79.000169C53.12508475 79.87241629 48.37574234 78.98021185 43.70953833 79.04781471C39.54551246 79.10814214 35.50962842 80.04553603 31.91721983 77.31220152C31.54567911 77.02950955 31.21913638 76.74118073 30.93287672 76.44767825C31.87319471 76.10503145 32.62848749 75.1922676 32.83588071 73.57378802C33.67720094 67.00819415 34.26572966 60.41236255 34.90254078 53.82378802C35.18272053 50.92499256 36.73015316 41.30173224 31.51554029 41.77183646C28.80326516 42.78843293 29.52071169 46.20148439 29.17323703 48.57378802C28.97415668 49.93296348 28.75396473 51.28905761 28.52755633 52.64422114C28.11139744 54.0785965 27.87751552 55.49356692 27.68061174 56.29980469C27.12780296 58.56332307 27.45544084 58.95380099 26.71644289 60.54980469C26.10413682 61.87219365 26.22516858 63.06722934 26.75211004 63.89988575C26.69841031 64.18226417 26.6412908 64.46597352 26.58246835 64.75058718C26.54163428 64.78096177 26.50064009 64.81065161 26.45953833 64.83962183C26.16442624 65.04762902 25.85533167 65.22399381 25.53642932 65.3694596C25.63424131 63.31975625 23.23619575 60.73228962 22.08951367 59.28574861C20.02765843 56.68471542 20.06640186 53.95652247 16.33032296 54.24461753C15.85715427 54.42375185 15.44996274 54.64815777 15.10379348 54.91043375C14.03743203 45.9923058 20.41004174 38.57558394 24.01111375 30.56220152C24.81806536 28.76651072 25.25207842 26.28369144 26.04363517 24.10124943C25.94519837 24.12982475 25.84563506 24.1607541 25.74490517 24.19440716ZM39.45847953 45.16647018C35.4548531 47.48245285 41.69613864 54.55440799 43.20847953 56.3683661C43.39914317 56.59705518 43.67552206 56.95212551 44.01984858 57.39995239C42.29280742 58.93974462 40.55733668 60.47041749 38.86491228 62.04787311C37.62896013 63.19986529 34.09912847 65.8864435 34.24007219 68.10522889C34.46373072 71.62613951 38.87769276 70.70465494 40.61621998 69.35522889C43.26303711 67.30079802 45.83969965 65.13112638 48.35586794 62.88703206C50.56163441 65.51368353 52.98852482 68.05811182 54.70847953 68.76399213C60.49898955 71.14045411 60.86822503 64.24708488 57.70847953 61.04974126C56.53198827 59.85925081 55.33955706 58.68476395 54.14197023 57.51544282C55.57101382 56.14067799 56.98170776 54.75116459 58.3760226 53.35522889C60.61200995 51.11664225 62.33547908 46.41144244 57.61491228 46.54302861C53.58767507 47.92562648 51.9468668 49.88392319 49.15721179 52.65017999C48.84020553 52.3372441 48.52389368 52.02360926 48.20847953 51.70907117C46.1902307 49.69642796 42.86006624 44.70713744 39.45847953 45.16647018Z" fill="#e06f8b" stroke="#e06f8b" stroke-width="1" opacity="1" stroke-linecap="round" stroke-linejoin="round" fill-rule="nonzero" fill-opacity="1" stroke-opacity="1" stroke-dasharray="none" stroke-dashoffset="0"></path><path transform="translate(0 0) rotate(0) scale(1 1)" data-vector95-seam-stroke="1" d="M29.75149819 17.5368178C28.53187237 19.90734363 24.51715215 21.66930009 22.00149819 22.02977845C16.73833732 22.78395833 12.23929861 17.88393245 15.75149819 12.90127405C17.36162407 10.61703392 20.99159003 10.20106203 23.50149819 9.77000451C27.63450128 9.46147568 32.0653089 13.03957944 29.75149819 17.5368178Z" fill="#f7e26b" stroke="#f7e26b" stroke-width="1" opacity="1" stroke-linecap="round" stroke-linejoin="round" fill-rule="nonzero" fill-opacity="1" stroke-opacity="1" stroke-dasharray="none" stroke-dashoffset="0"></path><path transform="translate(0 0) rotate(0) scale(1 1)" data-vector95-seam-stroke="1" d="M22.08951367 59.28574861C23.85778084 61.51642005 28.60177572 66.46019928 22.58032296 67.96128219C16.74774545 69.41528055 9.3408114 56.89073805 16.33032296 54.24461753C20.06640186 53.95652247 20.02765843 56.68471542 22.08951367 59.28574861Z" fill="#f7e26b" stroke="#f7e26b" stroke-width="1" opacity="1" stroke-linecap="round" stroke-linejoin="round" fill-rule="nonzero" fill-opacity="1" stroke-opacity="1" stroke-dasharray="none" stroke-dashoffset="0"></path><path transform="translate(0 0) rotate(0) scale(1 1)" data-vector95-seam-stroke="1" d="M83.08216602 67.44922807C79.50656458 68.24335044 74.37229055 65.34282312 76.6207676 61.10424079C77.99388283 58.51579457 81.54305205 57.01442993 84.08216602 56.07306194C92.51734984 55.52685301 89.1957158 66.09144067 83.08216602 67.44922807Z" fill="#f7e26b" stroke="#f7e26b" stroke-width="1" opacity="1" stroke-linecap="round" stroke-linejoin="round" fill-rule="nonzero" fill-opacity="1" stroke-opacity="1" stroke-dasharray="none" stroke-dashoffset="0"></path><path transform="translate(0 0) rotate(0) scale(1 1)" data-vector95-seam-stroke="1" d="M58.3760226 53.35522889C56.98170776 54.75116459 55.57101382 56.14067799 54.14197023 57.51544282C55.33955706 58.68476395 56.53198827 59.85925081 57.70847953 61.04974126C60.86822503 64.24708488 60.49898955 71.14045411 54.70847953 68.76399213C52.98852482 68.05811182 50.56163441 65.51368353 48.35586794 62.88703206C45.83969965 65.13112638 43.26303711 67.30079802 40.61621998 69.35522889C38.87769276 70.70465494 34.46373072 71.62613951 34.24007219 68.10522889C34.09912847 65.8864435 37.62896013 63.19986529 38.86491228 62.04787311C40.55733668 60.47041749 42.29280741 58.93974462 44.01984858 57.39995239C43.67552206 56.95212551 43.39914317 56.59705518 43.20847953 56.3683661C41.69613864 54.55440799 35.4548531 47.48245285 39.45847953 45.16647018C42.86006624 44.70713744 46.1902307 49.69642796 48.20847953 51.70907117C48.52389368 52.02360926 48.84020553 52.3372441 49.15721179 52.65017999C51.9468668 49.88392319 53.58767507 47.92562648 57.61491228 46.54302861C62.33547908 46.41144244 60.61200995 51.11664225 58.3760226 53.35522889Z" fill="#f7e26b" stroke="#f7e26b" stroke-width="1" opacity="1" stroke-linecap="round" stroke-linejoin="round" fill-rule="nonzero" fill-opacity="1" stroke-opacity="1" stroke-dasharray="none" stroke-dashoffset="0"></path><path transform="translate(0 0) rotate(0) scale(1 1)" data-vector95-seam-stroke="1" d="M34.90254078 53.82378802C34.26572966 60.41236255 33.67720094 67.00819415 32.83588071 73.57378802C32.28495026 77.87320389 27.86763195 77.1925634 26.38633842 74.07378802C24.92796214 71.00326356 26.0956023 67.3521117 26.75211004 63.89988575C26.22516858 63.06722934 26.10413683 61.87219366 26.71644289 60.54980469C27.45544084 58.95380099 27.12780296 58.56332307 27.68061174 56.29980469C27.87751552 55.49356692 28.11139744 54.0785965 28.52755633 52.64422114C28.75396473 51.28905761 28.97415668 49.93296348 29.17323703 48.57378802C29.52071169 46.20148439 28.80326516 42.78843293 31.51554029 41.77183646C36.73015316 41.30173224 35.18272053 50.92499256 34.90254078 53.82378802Z" fill="#be2633" stroke="#be2633" stroke-width="1" opacity="1" stroke-linecap="round" stroke-linejoin="round" fill-rule="nonzero" fill-opacity="1" stroke-opacity="1" stroke-dasharray="none" stroke-dashoffset="0"></path></g>
</svg>